<?xml version="1.0" standalone="no"?>
<!DOCTYPE svg PUBLIC "-//W3C//DTD SVG 20010904//EN"
 "http://www.w3.org/TR/2001/REC-SVG-20010904/DTD/svg10.dtd">
<svg version="1.0" xmlns="http://www.w3.org/2000/svg"
 width="655.000000pt" height="655.000000pt" viewBox="0 0 655.000000 655.000000"
 preserveAspectRatio="xMidYMid meet">
<metadata>
Created by potrace 1.14, written by Peter Selinger 2001-2017
</metadata>
<g transform="translate(0.000000,655.000000) scale(0.100000,-0.100000)"
fill="#000000" stroke="none">
<path d="m100 60c-22 0-40 18-40 40h140c32 0 60 28 60 60s-28 60-60 60h-40c-11 0-20 9-20 20v20h60c56 0 100-44 100-100s-44-100-100-100zm-10 80c-16 0-30 14-30 30v90c0 22 18 40 40 40v-100c0-11 9-20 20-20h80c11 0 20-9 20-20s-9-20-20-20z"
    style="fill: url(#g2);"/>
</svg>
